<svg xmlns="http://www.w3.org/2000/svg" width="116.537" height="155.403" viewBox="0 0 116.537 155.403">
  <g id="Group_124" data-name="Group 124" transform="translate(-400 -579.602)">
    <circle id="Ellipse_140" data-name="Ellipse 140" cx="14.038" cy="14.038" r="14.038" transform="translate(432.592 588.156)" fill="#ff6584"/>
    <path id="Path_604" data-name="Path 604" d="M250.61,136.3c0,33.122-19.691,44.687-43.98,44.687s-43.98-11.565-43.98-44.687,43.98-75.259,43.98-75.259S250.61,103.179,250.61,136.3Z" transform="translate(264.317 518.56)" fill="#f2f2f2"/>
    <path id="Path_605" data-name="Path 605" d="M253.242,114.88l.451-27.72,18.745-34.294L253.763,82.811l.2-12.464,12.919-24.811L254.019,67.048h0l.364-22.417,13.834-19.753L254.44,41.106,254.668,0l-1.43,54.416.118-2.245L239.29,30.642l13.84,25.839-1.311,25.036-.039-.664L235.565,58.2l16.166,25-.164,3.131-.029.047.013.257-3.325,63.52h4.442l.533-32.809L269.328,92.4Z" transform="translate(216.103 579.602)" fill="#3f3d56"/>
    <ellipse id="Ellipse_141" data-name="Ellipse 141" cx="57.363" cy="6.149" rx="57.363" ry="6.149" transform="translate(400 722.706)" fill="#3f3d56"/>
    <circle id="Ellipse_145" data-name="Ellipse 145" cx="17.328" cy="17.328" r="17.328" transform="translate(403.966 686.478)" fill="#2f2e41"/>
    <rect id="Rectangle_228" data-name="Rectangle 228" width="5.264" height="9.431" transform="translate(413.238 717.31) rotate(0.675)" fill="#2f2e41"/>
    <rect id="Rectangle_229" data-name="Rectangle 229" width="5.264" height="9.431" transform="translate(423.766 717.434) rotate(0.675)" fill="#2f2e41"/>
    <ellipse id="Ellipse_146" data-name="Ellipse 146" cx="1.645" cy="4.387" rx="1.645" ry="4.387" transform="translate(413.106 728.495) rotate(-89.325)" fill="#2f2e41"/>
    <ellipse id="Ellipse_147" data-name="Ellipse 147" cx="1.645" cy="4.387" rx="1.645" ry="4.387" transform="translate(423.636 728.4) rotate(-89.325)" fill="#2f2e41"/>
    <circle id="Ellipse_148" data-name="Ellipse 148" cx="5.922" cy="5.922" r="5.922" transform="translate(415.862 693.502)" fill="#fff"/>
    <circle id="Ellipse_149" data-name="Ellipse 149" cx="1.974" cy="1.974" r="1.974" transform="translate(419.81 697.45)" fill="#3f3d56"/>
    <path id="Path_608" data-name="Path 608" d="M60.209,501.943c-1.325-6.282,3.222-12.56,10.155-14.023s13.629,2.444,14.954,8.726-3.285,8.539-10.219,10S61.534,508.225,60.209,501.943Z" transform="translate(344.468 185.551)" fill="#6c63ff"/>
    <path id="Path_609" data-name="Path 609" d="M143.116,573.692c0,12.08-7.181,16.3-16.04,16.3q-.308,0-.615-.007c-.41-.009-.817-.028-1.219-.056-8-.566-14.207-5-14.207-16.235,0-11.627,14.858-26.3,15.974-27.383l0,0,.064-.063S143.116,561.611,143.116,573.692Z" transform="translate(304.61 139.78)" fill="#6c63ff"/>
    <path id="Path_610" data-name="Path 610" d="M158.555,588.142l5.867-8.2-5.881,9.1-.016.941c-.41-.009-.817-.028-1.219-.056l.632-12.086,0-.094.011-.018.06-1.141-5.9-9.12,5.914,8.264.014.242.478-9.132-5.048-9.424,5.109,7.821.5-18.932,0-.064v.063l-.083,14.929,5.025-5.918-5.046,7.2-.133,8.176,4.692-7.847-4.711,9.05-.074,4.545,6.812-10.921-6.837,12.507Z" transform="translate(272.546 139.78)" fill="#3f3d56"/>
    <path id="Path_613" data-name="Path 613" d="M520.656,584.886l5.385-7.525-5.4,8.351-.014.864c-.377-.008-.75-.026-1.119-.051l.58-11.094,0-.086.01-.016.055-1.048-5.412-8.372,5.429,7.586.013.222.439-8.382-4.633-8.651,4.69,7.179.457-17.379,0-.059v.057l-.076,13.7,4.613-5.433-4.632,6.613-.122,7.505,4.307-7.2-4.325,8.307-.068,4.172,6.253-10.025-6.276,11.481Z" transform="translate(-10.546 139.638)" fill="#3f3d56"/>
    <ellipse id="Ellipse_156" data-name="Ellipse 156" cx="2.72" cy="8.664" rx="2.72" ry="8.664" transform="translate(406.917 708.482) rotate(-68.159)" fill="#2f2e41"/>
  </g>
</svg>
